<svg width="17" height="19" viewBox="0 0 17 19" fill="none" xmlns="http://www.w3.org/2000/svg">
<path fill-rule="evenodd" clip-rule="evenodd" d="M0.291748 17.375C0.291748 17.0126 0.57157 16.7188 0.916748 16.7188H15.9167C16.2619 16.7188 16.5417 17.0126 16.5417 17.375C16.5417 17.7374 16.2619 18.0312 15.9167 18.0312H0.916748C0.57157 18.0312 0.291748 17.7374 0.291748 17.375Z" fill="blue"/>
<path fill-rule="evenodd" clip-rule="evenodd" d="M11.2063 0.96875C11.3721 0.968717 11.5312 1.0379 11.6484 1.16106L14.6921 4.35836C14.9361 4.61461 14.9361 5.02997 14.6921 5.28623L6.07429 14.3389C5.95707 14.4621 5.79806 14.5312 5.63225 14.5312H2.58341C2.23824 14.5312 1.95841 14.2374 1.95841 13.875V10.69C1.95841 10.516 2.02416 10.3492 2.14121 10.2262L10.7642 1.16124C10.8814 1.03803 11.0404 0.968783 11.2063 0.96875ZM11.2065 2.55346L3.20841 10.9616V13.2188H5.37328L13.3664 4.82229L11.2065 2.55346Z" fill="blue"/>
</svg>
