<?xml version="1.0" ?>
<svg xmlns="http://www.w3.org/2000/svg" xmlns:xlink="http://www.w3.org/1999/xlink" version="1.1" viewBox="0 0 32 32" style="enable-background:new 0 0 32 32;" xml:space="preserve">
<style type="text/css">
	.st0{fill:"red";}
</style>
<g id="Guides"/>
<g id="Icons">
<path class="st0" d="M22.85,4.04C20.21,3.77,17.7,4.77,16,6.7c-1.7-1.93-4.21-2.93-6.85-2.66C5.14,4.46,2,8.08,2,12.27   c0,2.01,0.75,3.93,2.11,5.42l7.8,8.51C12.96,27.34,14.45,28,16,28s3.04-0.66,4.09-1.8l7.8-8.51C29.25,16.2,30,14.28,30,12.27   C30,8.08,26.86,4.46,22.85,4.04z M26.42,16.34l-7.8,8.51C17.94,25.58,16.99,26,16,26s-1.94-0.42-2.61-1.15l-7.8-8.51   C4.56,15.22,4,13.78,4,12.27c0-3.19,2.35-5.92,5.35-6.24C9.57,6.01,9.79,6,10,6c2.11,0,4.04,1.08,5.14,2.91   c0.36,0.6,1.35,0.6,1.71,0c1.22-2.02,3.43-3.12,5.79-2.88c3,0.31,5.35,3.05,5.35,6.24C28,13.78,27.44,15.22,26.42,16.34z" fill="black" />
</g>
</svg>